<svg width="32" height="32" viewBox="0 0 32 32" fill="none" xmlns="http://www.w3.org/2000/svg">
<rect x="15" y="15" width="2" height="2" fill="#FF8800"/>
<rect x="3" y="15" width="2" height="2" fill="#FF8800"/>
<rect x="9" y="15" width="2" height="2" fill="#FF8800"/>
<rect x="12" y="15" width="2" height="2" fill="#FF8800"/>
<rect x="6" y="15" width="2" height="2" fill="#FF8800"/>
<rect x="18" y="24" width="2" height="2" fill="#FF8800"/>
<rect x="24" y="18" width="2" height="2" fill="#FF8800"/>
<rect x="21" y="21" width="2" height="2" fill="#FF8800"/>
<rect x="27" y="15" width="2" height="2" fill="#FF8800"/>
<rect x="24" y="12" width="2" height="2" fill="#FF8800"/>
<rect x="18" y="15" width="2" height="2" fill="#FF8800"/>
<rect x="18" y="6" width="2" height="2" fill="#FF8800"/>
<rect x="15" y="27" width="2" height="2" fill="#FF8800"/>
<rect x="15" y="3" width="2" height="2" fill="#FF8800"/>
<rect x="21" y="9" width="2" height="2" fill="#FF8800"/>
</svg>
