<svg width="100" height="100" viewBox="0 0 100 100" fill="none" xmlns="http://www.w3.org/2000/svg">
<g clip-path="url(#clip0_436_62)">
<path d="M52.9148 5.8296V0L47.0852 0V5.8296L52.9148 5.8296Z" fill="#FF8800"/>
<path d="M59.6412 5.8296V0L53.8116 0V5.8296L59.6412 5.8296Z" fill="#FF8800"/>
<path d="M46.1884 5.8296V0L40.3588 0V5.8296L46.1884 5.8296Z" fill="#FF8800"/>
<path d="M66.3677 12.5561V6.72646H60.5381V12.5561H66.3677Z" fill="#FF8800"/>
<path d="M73.0942 12.5561V6.72646H67.2646V12.5561H73.0942Z" fill="#FF8800"/>
<path d="M32.7354 12.5561V6.72646H26.9058V12.5561H32.7354Z" fill="#FF8800"/>
<path d="M26.009 19.2825V13.4529H20.1794V19.2825H26.009Z" fill="#FF8800"/>
<path d="M19.2825 19.2825V13.4529H13.4529V19.2825H19.2825Z" fill="#FF8800"/>
<path d="M19.2825 26.009V20.1794H13.4529V26.009H19.2825Z" fill="#FF8800"/>
<path d="M12.556 32.7354V26.9058H6.72643V32.7354H12.556Z" fill="#FF8800"/>
<path d="M52.9148 100V94.1704H47.0852V100H52.9148Z" fill="#FF8800"/>
<path d="M59.6412 100V94.1704H53.8116V100H59.6412Z" fill="#FF8800"/>
<path d="M46.1884 100V94.1704H40.3588V100H46.1884Z" fill="#FF8800"/>
<path d="M39.4619 93.2735V87.4439H33.6323V93.2735H39.4619Z" fill="#FF8800"/>
<path d="M66.3677 93.2735V87.4439H60.5381V93.2735H66.3677Z" fill="#FF8800"/>
<path d="M73.0942 93.2735V87.4439H67.2646V93.2735H73.0942Z" fill="#FF8800"/>
<path d="M79.8206 86.5471V80.7175H73.991V86.5471H79.8206Z" fill="#FF8800"/>
<path d="M26.009 86.5471V80.7175H20.1794V86.5471H26.009Z" fill="#FF8800"/>
<path d="M32.7354 93.2735V87.4439H26.9058V93.2735H32.7354Z" fill="#FF8800"/>
<path d="M94.1704 59.6413H100V53.8117H94.1704V59.6413Z" fill="#FF8800"/>
<path d="M87.444 66.3677H93.2736V60.5381H87.444V66.3677Z" fill="#FF8800"/>
<path d="M94.1704 52.9148H100V47.0852H94.1704V52.9148Z" fill="#FF8800"/>
<path d="M94.1704 46.1883H100V40.3587H94.1704V46.1883Z" fill="#FF8800"/>
<path d="M87.444 73.0942H93.2736V67.2646H87.444V73.0942Z" fill="#FF8800"/>
<path d="M80.7175 79.8206H86.5471V73.991H80.7175V79.8206Z" fill="#FF8800"/>
<path d="M80.7175 86.5471H86.5471V80.7175H80.7175V86.5471Z" fill="#FF8800"/>
<path d="M87.444 32.7354H93.2736V26.9058H87.444V32.7354Z" fill="#FF8800"/>
<path d="M80.7175 26.009H86.5471V20.1794H80.7175V26.009Z" fill="#FF8800"/>
<path d="M73.991 19.2825H79.8206V13.4529H73.991V19.2825Z" fill="#FF8800"/>
<path d="M80.7175 19.2825H86.5471V13.4529H80.7175V19.2825Z" fill="#FF8800"/>
<path d="M87.444 39.4619H93.2736V33.6323H87.444V39.4619Z" fill="#FF8800"/>
<path d="M-6.67572e-06 59.6413H5.82959L5.82959 53.8117H-6.67572e-06L-6.67572e-06 59.6413Z" fill="#FF8800"/>
<path d="M6.72643 66.3677H12.556V60.5381H6.72643L6.72643 66.3677Z" fill="#FF8800"/>
<path d="M-6.67572e-06 52.9148H5.82959L5.82959 47.0852H-6.67572e-06L-6.67572e-06 52.9148Z" fill="#FF8800"/>
<path d="M-6.67572e-06 46.1883H5.82959L5.82959 40.3587H-6.67572e-06L-6.67572e-06 46.1883Z" fill="#FF8800"/>
<path d="M6.72643 73.0942H12.556V67.2646H6.72643L6.72643 73.0942Z" fill="#FF8800"/>
<path d="M13.4529 79.8206H19.2825V73.991H13.4529V79.8206Z" fill="#FF8800"/>
<path d="M13.4529 86.5471H19.2825V80.7175H13.4529V86.5471Z" fill="#FF8800"/>
<path d="M6.72643 39.4619H12.556V33.6323H6.72643L6.72643 39.4619Z" fill="#FF8800"/>
<path d="M33.6323 12.5561H39.4619V6.72646L33.6323 6.72646V12.5561Z" fill="#FF8800"/>
<path d="M33.6323 12.5561H39.4619V6.72646L33.6323 6.72646V12.5561Z" fill="#FF8800"/>
<path d="M46.1884 26.9058H40.3588V32.7354H46.1884V26.9058Z" fill="#FF8800"/>
<path d="M52.9148 26.9058H47.0852V32.7354H52.9148V26.9058Z" fill="#FF8800"/>
<path d="M59.6412 26.9058H53.8116V32.7354H59.6412V26.9058Z" fill="#FF8800"/>
<path d="M39.4619 46.1883V40.3587H33.6323V46.1883H39.4619Z" fill="#FF8800"/>
<path d="M39.4619 39.4619V33.6323H33.6323V39.4619H39.4619Z" fill="#FF8800"/>
<path d="M66.3677 39.4619V33.6323H60.5381V39.4619H66.3677Z" fill="#FF8800"/>
<path d="M46.1884 73.0942H40.3588V67.2646H46.1884V73.0942Z" fill="#FF8800"/>
<path d="M52.9148 73.0942H47.0852V67.2646H52.9148V73.0942Z" fill="#FF8800"/>
<path d="M59.6412 73.0942H53.8116V67.2646H59.6412V73.0942Z" fill="#FF8800"/>
<path d="M66.3677 60.5381V66.3677H60.5381V60.5381H66.3677Z" fill="#FF8800"/>
<path d="M39.4619 52.9148V47.0852H33.6323V52.9148H39.4619Z" fill="#FF8800"/>
<path d="M39.4619 59.6413V53.8117H33.6323V59.6413H39.4619Z" fill="#FF8800"/>
<path d="M39.4619 66.3677V60.5381H33.6323V66.3677H39.4619Z" fill="#FF8800"/>
</g>
<defs>
<clipPath id="clip0_436_62">
<rect width="100" height="100" fill="white"/>
</clipPath>
</defs>
</svg>
