<svg width="32" height="32" viewBox="0 0 32 32" fill="none" xmlns="http://www.w3.org/2000/svg">
<g clip-path="url(#clip0_494_78)">
<path d="M15.6351 18.872C14.9391 21.848 12.8751 23.264 10.0911 23.264C6.49113 23.264 4.35513 20.792 4.35513 16.664C4.35513 12.368 6.51513 10.04 9.97113 10.04C13.4751 10.04 15.5631 12.464 15.5631 16.472V16.904H5.93913C6.01113 20.096 7.52313 21.92 10.0911 21.92C12.0831 21.92 13.5231 20.888 14.0271 18.872H15.6351ZM9.97113 11.384C7.61913 11.384 6.22713 12.896 5.98713 15.704H13.9551C13.7151 12.968 12.2991 11.384 9.97113 11.384ZM26.5722 23L23.1642 18.368L22.5402 17.408L21.8922 18.368L18.5322 23H16.7562L21.6762 16.4L17.1642 10.304H19.1082L22.1082 14.408L22.7562 15.392L23.3802 14.408L26.3562 10.304H28.1322L23.5962 16.4L28.5402 23H26.5722Z" fill="#EDEAE2"/>
</g>
<defs>
<clipPath id="clip0_494_78">
<rect width="32" height="32" fill="white"/>
</clipPath>
</defs>
</svg>
