<svg width="32" height="32" viewBox="0 0 32 32" fill="none" xmlns="http://www.w3.org/2000/svg">
<path d="M5 5.9875C5 2.68125 7.68125 0 10.9875 0H21.2625C24.5688 0 27.25 2.68125 27.25 5.9875C27.25 8.08125 26.175 9.925 24.5438 10.9937C26.175 12.0625 27.25 13.9062 27.25 16C27.25 19.3063 24.5688 21.9875 21.2625 21.9875H21.1313C19.5813 21.9875 18.1687 21.4 17.1062 20.4312V25.95C17.1062 29.3 14.3563 32 11.0188 32C7.71875 32 5 29.325 5 26.0125C5 23.9188 6.075 22.075 7.7 21.0063C6.075 19.9375 5 18.0938 5 16C5 13.9062 6.075 12.0625 7.7 10.9937C6.075 9.925 5 8.08125 5 5.9875ZM15.1438 11.975H10.9875C8.7625 11.975 6.9625 13.775 6.9625 16C6.9625 18.2125 8.75 20.0125 10.9625 20.025C10.9688 20.025 10.9813 20.025 10.9875 20.025H15.1438V11.975ZM17.1062 16C17.1062 18.225 18.9063 20.025 21.1313 20.025H21.2625C23.4813 20.025 25.2875 18.225 25.2875 16C25.2875 13.775 23.4813 11.975 21.2625 11.975H21.1313C18.9063 11.975 17.1062 13.775 17.1062 16ZM10.9875 21.9875C10.9813 21.9875 10.9688 21.9875 10.9625 21.9875C8.75 22 6.9625 23.8 6.9625 26.0125C6.9625 28.2313 8.7875 30.0375 11.0188 30.0375C13.2875 30.0375 15.1438 28.2 15.1438 25.95V21.9875H10.9875ZM10.9875 1.9625C8.7625 1.9625 6.9625 3.7625 6.9625 5.9875C6.9625 8.2125 8.7625 10.0125 10.9875 10.0125H15.1438V1.9625H10.9875ZM17.1062 10.0125H21.2625C23.4813 10.0125 25.2875 8.2125 25.2875 5.9875C25.2875 3.7625 23.4813 1.9625 21.2625 1.9625H17.1062V10.0125Z" fill="#EDEAE2"/>
</svg>
