<svg width="32" height="32" viewBox="0 0 32 32" fill="none" xmlns="http://www.w3.org/2000/svg">
<path d="M2 2V30H30V2H2ZM17.2375 23.8375C17.2375 26.5625 15.6375 27.8062 13.3062 27.8062C11.2 27.8062 9.98125 26.7187 9.35625 25.4L11.5 24.1063C11.9125 24.8375 12.2875 25.4562 13.1938 25.4562C14.0563 25.4562 14.6062 25.1187 14.6062 23.8V14.8562H17.2375V23.8375ZM23.4625 27.8062C21.0187 27.8062 19.4375 26.6437 18.6688 25.1187L20.8125 23.8813C21.375 24.8 22.1125 25.4813 23.4062 25.4813C24.4937 25.4813 25.1938 24.9375 25.1938 24.1812C25.1938 23.2812 24.4812 22.9625 23.275 22.4312L22.6187 22.15C20.7187 21.3437 19.4625 20.325 19.4625 18.1812C19.4625 16.2062 20.9688 14.7063 23.3125 14.7063C24.9875 14.7063 26.1875 15.2875 27.05 16.8125L25 18.125C24.55 17.3188 24.0625 17 23.3062 17C22.5375 17 22.05 17.4875 22.05 18.125C22.05 18.9125 22.5375 19.2313 23.6688 19.725L24.325 20.0063C26.5625 20.9625 27.8188 21.9437 27.8188 24.1437C27.8188 26.5062 25.9562 27.8062 23.4625 27.8062Z" fill="#EDEAE2"/>
</svg>
