<svg width="32" height="32" viewBox="0 0 32 32" fill="none" xmlns="http://www.w3.org/2000/svg">
<g clip-path="url(#clip0_494_86)">
<path d="M21.1715 19.5562C21.784 19.1375 22.634 18.775 22.634 18.775C22.634 18.775 20.2153 19.2125 17.809 19.4125C14.8653 19.6563 11.7028 19.7062 10.1153 19.4937C6.35902 18.9937 12.1778 17.6125 12.1778 17.6125C12.1778 17.6125 9.92152 17.4625 7.14027 18.8C3.85902 20.3875 15.2653 21.1125 21.1715 19.5562ZM15.834 17.55C14.6465 14.8812 10.6403 12.5375 15.834 8.4375C22.3153 3.325 18.9903 0 18.9903 0C20.334 5.28125 14.2653 6.88125 12.0715 10.1625C10.5778 12.4063 12.8028 14.8125 15.834 17.55ZM22.9965 6.5375C23.0028 6.5375 12.0465 9.275 17.2778 15.3C18.8215 17.075 16.8715 18.675 16.8715 18.675C16.8715 18.675 20.7903 16.65 18.9903 14.1187C17.309 11.7562 16.0215 10.5812 22.9965 6.5375ZM22.6153 23.4438C22.5811 23.5033 22.5391 23.558 22.4903 23.6063C30.509 21.5 27.559 16.175 23.7278 17.525C23.5208 17.6009 23.342 17.7383 23.2153 17.9188C23.439 17.8378 23.6689 17.7751 23.9028 17.7313C25.8403 17.325 28.6215 20.325 22.6153 23.4438ZM25.5653 27.3375C25.5653 27.3375 26.4715 28.0813 24.5715 28.6625C20.9528 29.7563 9.52152 30.0875 6.34652 28.7062C5.20277 28.2125 7.34652 27.5187 8.02152 27.375C8.72152 27.225 9.12777 27.25 9.12777 27.25C7.85902 26.3562 0.921522 29.0063 5.60277 29.7625C18.3653 31.8375 28.8778 28.8312 25.5653 27.3375ZM11.5903 24.75C6.67152 26.125 14.584 28.9625 20.8465 26.2812C20.2358 26.044 19.6462 25.7554 19.084 25.4188C16.2903 25.95 14.9965 25.9875 12.459 25.7C10.3653 25.4625 11.5903 24.75 11.5903 24.75ZM22.8278 30.825C17.909 31.75 11.8403 31.6437 8.24652 31.05C8.24652 31.0437 8.98402 31.6562 12.7715 31.9C18.534 32.2687 27.384 31.6937 27.5903 28.9688C27.5903 28.9688 27.1903 30 22.8278 30.825ZM20.1028 22.0625C16.4028 22.775 14.259 22.7563 11.5528 22.475C9.45902 22.2563 10.8278 21.2437 10.8278 21.2437C5.40277 23.0437 13.8403 25.0812 21.4215 22.8625C20.9316 22.6894 20.4826 22.4171 20.1028 22.0625Z" fill="#EDEAE2"/>
</g>
<defs>
<clipPath id="clip0_494_86">
<rect width="32" height="32" fill="white"/>
</clipPath>
</defs>
</svg>
