<svg width="32" height="32" viewBox="0 0 32 32" fill="none" xmlns="http://www.w3.org/2000/svg">
<g clip-path="url(#clip0_403_14)">
<path d="M29.456 24.5265C27.7162 24.4831 26.3679 24.6572 25.2369 25.1355C24.9107 25.2659 24.3887 25.2661 24.3452 25.6792C24.5193 25.8533 24.541 26.136 24.6933 26.3751C24.9544 26.8099 25.4109 27.3973 25.8242 27.7018C26.2808 28.0497 26.7376 28.3976 27.2159 28.7021C28.0641 29.2241 29.0211 29.5285 29.8475 30.0505C30.3261 30.3548 30.8043 30.7465 31.2827 31.0727C31.522 31.2465 31.6742 31.5293 31.9787 31.6381V31.5728C31.8264 31.3771 31.7829 31.0944 31.6308 30.8769C31.4134 30.6594 31.1958 30.4636 30.9784 30.2462C30.3476 29.3981 29.5648 28.6586 28.7166 28.0497C28.0208 27.5712 26.4983 26.9188 26.2156 26.1141C26.2156 26.1141 26.1938 26.0924 26.1721 26.0707C26.6505 26.0272 27.2159 25.8533 27.6727 25.7227C28.4122 25.5269 29.0863 25.5704 29.8475 25.3748C30.1954 25.2878 30.5434 25.179 30.8913 25.0703V24.8746C30.5 24.4831 30.2172 23.9612 29.8039 23.5915C28.6949 22.6344 27.4769 21.6994 26.2156 20.9165C25.5413 20.4816 24.6714 20.1988 23.9538 19.8292C23.6929 19.6985 23.2578 19.6334 23.1057 19.4159C22.7142 18.9374 22.4967 18.3068 22.214 17.7413C21.5835 16.5451 20.9744 15.2187 20.4307 13.9573C20.0394 13.1091 19.8001 12.2609 19.3216 11.4781C17.0816 7.78099 14.6459 5.54101 10.9053 3.34443C10.1006 2.88779 9.14379 2.69201 8.12163 2.45284C7.57808 2.43101 7.03425 2.38762 6.49056 2.36579C6.14265 2.21353 5.79461 1.80041 5.49009 1.60463C4.25073 0.821637 1.05367 -0.874509 0.140249 1.36546C-0.446962 2.77906 1.01015 4.17081 1.51031 4.88859C1.88018 5.38875 2.35852 5.95413 2.61952 6.51966C2.77178 6.88912 2.81516 7.28082 2.96742 7.67225C3.31547 8.62892 3.64154 9.69473 4.09832 10.5865C4.33763 11.0431 4.59849 11.5216 4.90301 11.9347C5.07696 12.1739 5.38134 12.2828 5.4467 12.6742C5.14231 13.1091 5.12048 13.7616 4.94639 14.3052C4.16354 16.7627 4.46806 19.8074 5.57713 21.6124C5.92503 22.1559 6.75154 23.3523 7.86062 22.8955C8.83926 22.5041 8.62179 21.2645 8.90448 20.1771C8.96983 19.9159 8.92631 19.7421 9.05674 19.5682C9.05685 19.5899 9.05674 19.6117 9.05674 19.6117C9.36126 20.2206 9.66564 20.8078 9.94833 21.4167C10.6226 22.4823 11.7969 23.5915 12.7755 24.3309C13.2976 24.7222 13.7108 25.3965 14.3632 25.6358V25.5704H14.3197C14.1891 25.3747 13.9935 25.2877 13.8195 25.1355C13.4281 24.7441 12.993 24.2656 12.6886 23.8306C11.7753 22.6127 10.9705 21.2645 10.2528 19.8726C9.90494 19.1984 9.60042 18.459 9.31773 17.7849C9.18717 17.5237 9.18717 17.1324 8.96969 17.002C8.64348 17.4803 8.16514 17.8936 7.92584 18.4808C7.51285 19.4159 7.46919 20.5685 7.31693 21.7646C7.23002 21.7864 7.27341 21.7646 7.22989 21.8081C6.53408 21.6341 6.29477 20.9165 6.03377 20.3075C5.38134 18.7635 5.2726 16.2842 5.83812 14.501C5.99038 14.0442 6.64281 12.609 6.38181 12.174C6.25138 11.7608 5.81629 11.5216 5.57712 11.1954C5.29443 10.7821 4.98991 10.2603 4.79427 9.80348C4.27227 8.58567 4.01128 7.2373 3.4459 6.01935C3.1849 5.45383 2.72826 4.86676 2.35852 4.3449C1.9454 3.75769 1.48862 3.34443 1.1624 2.64848C1.0538 2.40931 0.901403 2.01789 1.07536 1.75689C1.11888 1.58294 1.20579 1.51772 1.37988 1.4742C1.66257 1.23489 2.46725 1.53941 2.74994 1.66984C3.55462 1.99592 4.22874 2.30058 4.903 2.75722C5.20738 2.97469 5.53359 3.38795 5.92502 3.49669H6.3818C7.07775 3.64881 7.86061 3.54021 8.51303 3.73586C9.66576 4.10546 10.7095 4.64928 11.6447 5.23649C14.4937 7.04151 16.8423 9.60783 18.43 12.6742C18.691 13.1742 18.7996 13.6311 19.0389 14.153C19.4957 15.2187 20.0611 16.306 20.5177 17.3499C20.9744 18.3719 21.4093 19.4159 22.0617 20.2641C22.3881 20.7206 23.6928 20.9599 24.28 21.1992C24.7149 21.3949 25.3892 21.569 25.7806 21.8082C26.52 22.2647 27.2594 22.7868 27.9554 23.287C28.3034 23.5478 29.3907 24.0916 29.456 24.5265Z" fill="#EDEAE2"/>
<path d="M7.27331 5.62793C6.90357 5.62793 6.64271 5.67159 6.38171 5.73681C6.38171 5.73681 6.38171 5.75864 6.38171 5.78033H6.42524C6.59933 6.12823 6.90357 6.36754 7.12105 6.67192C7.29514 7.01983 7.44726 7.36787 7.62135 7.71591C7.64304 7.69408 7.66474 7.67239 7.66474 7.67239C7.96939 7.45478 8.12152 7.10687 8.12152 6.58501C7.99095 6.43275 7.96926 6.28049 7.86052 6.12823C7.73009 5.91062 7.44726 5.80202 7.27331 5.62793Z" fill="#EDEAE2"/>
</g>
<defs>
<clipPath id="clip0_403_14">
<rect width="32" height="32" fill="white"/>
</clipPath>
</defs>
</svg>
