<svg width="32" height="32" viewBox="0 0 32 32" fill="none" xmlns="http://www.w3.org/2000/svg">
<path d="M15.9563 31.4969C15.5375 31.4969 15.1125 31.3844 14.7438 31.1719L10.8875 28.8906C10.3125 28.5656 10.5938 28.4531 10.7812 28.3906C11.55 28.1219 11.7063 28.0656 12.525 27.5969C12.6125 27.5469 12.725 27.5656 12.8125 27.6219L15.775 29.3781C15.8813 29.4406 16.0313 29.4406 16.1313 29.3781L27.675 22.7156C27.7812 22.6531 27.85 22.5281 27.85 22.4031V9.07812C27.85 8.94688 27.7812 8.82812 27.6687 8.75937L16.1313 2.10313C16.025 2.04063 15.8813 2.04063 15.775 2.10313L4.24375 8.76562C4.13125 8.82812 4.0625 8.95312 4.0625 9.08437V22.4031C4.0625 22.5281 4.13125 22.6531 4.24375 22.7094L7.40625 24.5344C9.125 25.3906 10.175 24.3844 10.175 23.3656V10.2156C10.175 10.0281 10.325 9.88437 10.5125 9.88437H11.975C12.1563 9.88437 12.3125 10.0281 12.3125 10.2156V23.3719C12.3125 25.6594 11.0625 26.9719 8.89375 26.9719C8.225 26.9719 7.7 26.9719 6.2375 26.2469L3.2125 24.5031C2.4625 24.0719 2 23.2656 2 22.3969V9.07812C2 8.21562 2.4625 7.40312 3.2125 6.97187L14.7438 0.309375C15.475 -0.103125 16.4437 -0.103125 17.1687 0.309375L28.7125 6.97812C29.4625 7.40937 29.925 8.21562 29.925 9.08437V22.4031C29.925 23.2656 29.4625 24.0719 28.7125 24.5094L17.1687 31.1719C16.8 31.3844 16.3813 31.4969 15.9563 31.4969ZM25.275 18.3656C25.275 15.8719 23.5875 15.2094 20.0437 14.7406C16.4562 14.2656 16.0938 14.0219 16.0938 13.1844C16.0938 12.4906 16.4 11.5656 19.0562 11.5656C21.425 11.5656 22.3 12.0781 22.6625 13.6781C22.6937 13.8281 22.8312 13.9406 22.9875 13.9406H24.4875C24.5812 13.9406 24.6687 13.9031 24.7312 13.8344C24.7937 13.7656 24.825 13.6719 24.8187 13.5781C24.5875 10.8219 22.7562 9.54062 19.0562 9.54062C15.7625 9.54062 13.8 10.9281 13.8 13.2594C13.8 15.7844 15.7562 16.4844 18.9125 16.7969C22.6937 17.1656 22.9875 17.7219 22.9875 18.4656C22.9875 19.7531 21.95 20.3031 19.5187 20.3031C16.4625 20.3031 15.7938 19.5344 15.5688 18.0156C15.5438 17.8531 15.4063 17.7344 15.2375 17.7344H13.7438C13.5563 17.7344 13.4125 17.8844 13.4125 18.0656C13.4125 20.0094 14.4687 22.3281 19.525 22.3281C23.175 22.3219 25.275 20.8781 25.275 18.3656Z" fill="#EDEAE2"/>
</svg>
