<svg width="32" height="32" viewBox="0 0 32 32" fill="none" xmlns="http://www.w3.org/2000/svg">
<path d="M14 5C14 6.32608 13.4732 7.59785 12.5355 8.53553C11.5979 9.47322 10.3261 10 9 10C7.67392 10 6.40215 9.47322 5.46446 8.53553C4.52678 7.59785 4 6.32608 4 5C4 3.67392 4.52678 2.40215 5.46446 1.46447C6.40215 0.526784 7.67392 0 9 0C10.3261 0 11.5979 0.526784 12.5355 1.46447C13.4732 2.40215 14 3.67392 14 5ZM22.45 13.106C22.2624 13.012 22.0501 12.9795 21.843 13.0128C21.6359 13.0462 21.4445 13.1439 21.296 13.292L13.876 22.712L8.556 17.168C8.36392 17.0401 8.13352 16.9826 7.90387 17.0052C7.67423 17.0278 7.45946 17.1291 7.296 17.292L0.0039978 26V30C0.0039978 30.5304 0.214711 31.0391 0.589784 31.4142C0.964857 31.7893 1.47356 32 2.004 32H30.004C30.2666 32 30.5267 31.9483 30.7694 31.8478C31.012 31.7472 31.2325 31.5999 31.4182 31.4142C31.6039 31.2285 31.7512 31.008 31.8518 30.7654C31.9523 30.5227 32.004 30.2626 32.004 30V21L22.45 13.106Z" fill="#EDEAE2"/>
</svg>
