<svg width="32" height="32" viewBox="0 0 32 32" fill="none" xmlns="http://www.w3.org/2000/svg">
<path d="M26.1375 11.0752C25.8 10.9627 25.4625 10.8564 25.125 10.7564C25.1812 10.5252 25.2313 10.2939 25.2812 10.0627C26.05 6.33769 25.5437 3.34395 23.8375 2.35645C22.1938 1.41269 19.5125 2.39394 16.8 4.75644C16.5312 4.98769 16.2687 5.23144 16.0187 5.47519C15.85 5.3127 15.675 5.1502 15.5 4.99395C12.6562 2.46895 9.80625 1.40645 8.1 2.4002C6.4625 3.3502 5.975 6.16895 6.6625 9.69395C6.73125 10.0439 6.80625 10.3877 6.89375 10.7377C6.49375 10.8502 6.1 10.9752 5.73125 11.1064C2.39375 12.2627 0 14.0877 0 15.9752C0 17.9252 2.55 19.8814 6.01875 21.0689C6.3 21.1627 6.58125 21.2564 6.86875 21.3377C6.775 21.7127 6.69375 22.0814 6.61875 22.4627C5.9625 25.9314 6.475 28.6814 8.1125 29.6252C9.8 30.6002 12.6375 29.6002 15.4 27.1814C15.6187 26.9877 15.8375 26.7877 16.0562 26.5752C16.3312 26.8439 16.6187 27.1002 16.9062 27.3502C19.5812 29.6502 22.225 30.5814 23.8563 29.6377C25.5438 28.6627 26.0938 25.7064 25.3813 22.1064C25.325 21.8314 25.2625 21.5502 25.1938 21.2627C25.3938 21.2064 25.5875 21.1439 25.7812 21.0814C29.3875 19.8877 32 17.9564 32 15.9752C32 14.0814 29.5375 12.2439 26.1375 11.0752ZM17.6812 5.76895C20.0063 3.74395 22.175 2.95019 23.1625 3.51894C24.2188 4.1252 24.625 6.57519 23.9625 9.79394C23.9187 10.0064 23.875 10.2127 23.8188 10.4189C22.4312 10.1064 21.025 9.88145 19.6125 9.75645C18.8 8.59395 17.9125 7.48145 16.95 6.4377C17.1938 6.20645 17.4312 5.9877 17.6812 5.76895ZM10.45 19.2189C10.7688 19.7627 11.0938 20.3064 11.4375 20.8377C10.4625 20.7314 9.49375 20.5752 8.5375 20.3689C8.8125 19.4689 9.15625 18.5377 9.55625 17.5877C9.84375 18.1377 10.1375 18.6814 10.45 19.2189ZM8.55625 11.7002C9.45625 11.5002 10.4125 11.3377 11.4062 11.2127C11.075 11.7314 10.75 12.2627 10.4438 12.8002C10.1375 13.3314 9.8375 13.8752 9.55625 14.4252C9.1625 13.4939 8.83125 12.5814 8.55625 11.7002ZM10.2688 16.0064C10.6813 15.1439 11.1312 14.3002 11.6062 13.4689C12.0813 12.6377 12.5938 11.8314 13.1313 11.0377C14.0688 10.9689 15.025 10.9314 16 10.9314C16.975 10.9314 17.9375 10.9689 18.8687 11.0377C19.4 11.8252 19.9062 12.6314 20.3875 13.4564C20.8688 14.2814 21.3188 15.1252 21.7437 15.9814C21.325 16.8439 20.875 17.6939 20.3937 18.5314C19.9187 19.3627 19.4125 20.1689 18.8813 20.9689C17.95 21.0377 16.9813 21.0689 16 21.0689C15.0188 21.0689 14.0687 21.0377 13.15 20.9814C12.6062 20.1877 12.0938 19.3752 11.6125 18.5439C11.1313 17.7127 10.6875 16.8689 10.2688 16.0064ZM21.5562 19.2064C21.875 18.6564 22.175 18.1002 22.4688 17.5377C22.8687 18.4439 23.2188 19.3627 23.525 20.3064C22.5562 20.5252 21.575 20.6939 20.5875 20.8064C20.925 20.2814 21.2437 19.7439 21.5562 19.2064ZM22.4562 14.4252C22.1625 13.8752 21.8625 13.3252 21.55 12.7877C21.2437 12.2564 20.925 11.7314 20.5938 11.2127C21.6 11.3377 22.5625 11.5064 23.4625 11.7127C23.175 12.6377 22.8375 13.5377 22.4562 14.4252ZM16.0125 7.39395C16.6688 8.10645 17.2875 8.85645 17.8625 9.63145C16.625 9.5752 15.3813 9.5752 14.1438 9.63145C14.7563 8.8252 15.3875 8.0752 16.0125 7.39395ZM8.7625 3.5627C9.8125 2.9502 12.1438 3.8252 14.6 6.0002C14.7563 6.13769 14.9125 6.28769 15.075 6.4377C14.1062 7.48145 13.2125 8.59395 12.3938 9.75645C10.9812 9.88145 9.58125 10.1002 8.19375 10.4064C8.1125 10.0877 8.04375 9.76269 7.975 9.4377C7.3875 6.41269 7.775 4.13144 8.7625 3.5627ZM7.23125 20.0377C6.96875 19.9627 6.7125 19.8814 6.45625 19.7939C5.125 19.3752 3.6125 18.7127 2.51875 17.8439C1.8875 17.4064 1.4625 16.7314 1.34375 15.9752C1.34375 14.8314 3.31875 13.3689 6.16875 12.3752C6.525 12.2502 6.8875 12.1377 7.25 12.0314C7.675 13.3877 8.1875 14.7189 8.78125 16.0064C8.18125 17.3127 7.6625 18.6627 7.23125 20.0377ZM14.5188 26.1627C13.4875 27.1064 12.2937 27.8564 10.9937 28.3689C10.3 28.7002 9.5 28.7314 8.7875 28.4502C7.79375 27.8752 7.38125 25.6689 7.94375 22.7002C8.0125 22.3502 8.0875 22.0002 8.175 21.6564C9.575 21.9564 10.9875 22.1627 12.4187 22.2689C13.2437 23.4377 14.15 24.5564 15.1187 25.6064C14.9187 25.8002 14.7188 25.9877 14.5188 26.1627ZM16.05 24.6439C15.4125 23.9564 14.775 23.1939 14.1562 22.3752C14.7563 22.4002 15.375 22.4127 16 22.4127C16.6437 22.4127 17.275 22.4002 17.9 22.3689C17.325 23.1627 16.7062 23.9189 16.05 24.6439ZM24.2188 26.5189C24.1625 27.2814 23.7875 27.9939 23.1875 28.4752C22.1938 29.0502 20.075 28.3002 17.7875 26.3377C17.525 26.1127 17.2625 25.8689 16.9937 25.6189C17.95 24.5627 18.8313 23.4439 19.6313 22.2689C21.0625 22.1502 22.4875 21.9314 23.8937 21.6127C23.9562 21.8689 24.0125 22.1252 24.0625 22.3752C24.3687 23.7252 24.4188 25.1314 24.2188 26.5189ZM25.3563 19.8002C25.1813 19.8564 25.0063 19.9127 24.825 19.9627C24.3875 18.6002 23.85 17.2689 23.2313 15.9752C23.8313 14.7002 24.3375 13.3877 24.7625 12.0439C25.0875 12.1377 25.4 12.2377 25.7 12.3377C28.6125 13.3377 30.6562 14.8252 30.6562 15.9627C30.6562 17.1877 28.475 18.7689 25.3563 19.8002ZM16 18.8627C17.5812 18.8627 18.8625 17.5814 18.8625 16.0002C18.8625 14.4189 17.5812 13.1377 16 13.1377C14.4187 13.1377 13.1375 14.4189 13.1375 16.0002C13.1375 17.5814 14.4187 18.8627 16 18.8627Z" fill="#EDEAE2"/>
</svg>
