<svg width="32" height="32" viewBox="0 0 32 32" fill="none" xmlns="http://www.w3.org/2000/svg">
<path d="M9 13.7001C9.93333 9.96676 12.2667 8.1001 16 8.1001C21.6 8.1001 22.3 12.3001 25.1 13.0001C26.9667 13.4668 28.6 12.7668 30 10.9001C29.0667 14.6334 26.7333 16.5001 23 16.5001C17.4 16.5001 16.7 12.3001 13.9 11.6001C12.0333 11.1334 10.4 11.8334 9 13.7001ZM2 22.1001C2.93333 18.3668 5.26667 16.5001 9 16.5001C14.6 16.5001 15.3 20.7001 18.1 21.4001C19.9667 21.8668 21.6 21.1668 23 19.3001C22.0667 23.0334 19.7333 24.9001 16 24.9001C10.4 24.9001 9.7 20.7001 6.9 20.0001C5.03333 19.5334 3.4 20.2334 2 22.1001Z" fill="#EDEAE2"/>
</svg>
