<svg width="32" height="32" viewBox="0 0 32 32" fill="none" xmlns="http://www.w3.org/2000/svg">
<g clip-path="url(#clip0_494_89)">
<path d="M30.863 3.38353L24.2802 0.200008C23.5142 -0.171922 22.6033 -0.0151084 22.0043 0.587016L9.39562 12.152L3.90077 7.96329C3.39078 7.57025 2.6718 7.60242 2.19782 8.03667L0.437865 9.64904C-0.145119 10.1778 -0.145119 11.0996 0.432865 11.6283L5.19873 16L0.432865 20.3717C-0.145119 20.9004 -0.145119 21.8222 0.437865 22.351L2.19782 23.9633C2.6768 24.3976 3.39078 24.4297 3.90077 24.0367L9.39562 19.8429L22.0103 31.413C22.6043 32.0151 23.5152 32.1719 24.2812 31.8L30.87 28.6114C31.563 28.2767 32 27.5751 32 26.8V5.19292C32 4.42292 31.557 3.71626 30.865 3.38152L30.863 3.38353ZM24.0032 23.3049L14.4305 16.001L24.0032 8.6971V23.3049Z" fill="#EDEAE2"/>
</g>
<defs>
<clipPath id="clip0_494_89">
<rect width="32" height="32" fill="white"/>
</clipPath>
</defs>
</svg>
